<?xml version="1.0" encoding="utf-8"?>
<!-- Generator: Adobe Illustrator 27.0.1, SVG Export Plug-In . SVG Version: 6.00 Build 0)  -->
<svg version="1.1" id="Layer_1" xmlns="http://www.w3.org/2000/svg" xmlns:xlink="http://www.w3.org/1999/xlink" x="0px" y="0px"
	 viewBox="0 0 71 64" style="enable-background:new 0 0 71 64;" xml:space="preserve">
<style type="text/css">
	.st0{fill:none;stroke:#42F9C2;stroke-width:3;}
</style>
<g>
	<g>
		<g>
			<path class="st0" d="M35.4,41.5c0-5.5,3.9-7.7,8.7-5l9.7,5.6c4.8,2.8,4.8,7.3,0,10l-9.7,5.6c-4.8,2.8-8.7,0.5-8.7-5V41.5z"/>
		</g>
		<g>
			<path class="st0" d="M35.4,12.5c0-5.5,3.9-7.8,8.7-5l9.7,5.6c4.8,2.7,4.8,7.2,0,10l-9.7,5.6c-4.8,2.8-8.7,0.5-8.7-5V12.5z"/>
		</g>
		<g>
			<path class="st0" d="M64.7,38.3c0,5.5-3.9,7.8-8.7,5l-9.7-5.6c-4.8-2.7-4.8-7.2,0-10l9.7-5.6c4.8-2.8,8.7-0.5,8.7,5V38.3z"/>
		</g>
	</g>
</g>
<g>
	<g>
		<g>
			<path class="st0" d="M35.5,23.7c0,5.5-3.9,7.7-8.7,5l-9.7-5.6c-4.8-2.8-4.8-7.3,0-10l9.7-5.6c4.8-2.7,8.7-0.5,8.7,5V23.7z"/>
		</g>
		<g>
			<path class="st0" d="M35.5,52.7c0,5.5-3.9,7.8-8.7,5l-9.7-5.6c-4.8-2.7-4.8-7.2,0-10l9.7-5.6c4.8-2.8,8.7-0.5,8.7,5V52.7z"/>
		</g>
		<g>
			<path class="st0" d="M6.2,26.9c0-5.5,3.9-7.8,8.7-5l9.7,5.6c4.8,2.7,4.8,7.2,0,10l-9.7,5.6c-4.8,2.8-8.7,0.5-8.7-5V26.9z"/>
		</g>
	</g>
</g>
</svg>
